Love for All and Sharing is the first step to solving all the problems of humanity.

Website I want to share. 
               
   http://www.scenetime.com
 
 
  Credit to EVERYONE for sharing and seeding back
 especially to SCENETIME.COM where i get all my 
 downloads.


 support www.scenetime.com to grow faster.

                             
                                                            
                                                   

.                

[b]Snub 2010 DVDRip XviD AC3-LEGi0N[/center]             

[img]http://leetleech.org/images/48874973695367351744.png[/img][b]
[color=red]General[/color]
Format:AVI 
File Size: 1.37 GiB
Duration: 1h 14mn
Overall bit rate: 2 631 Kbps
IMDB Rating: 4.3/10   386  votes
Genre: Action: Drama            
IMDb Link: http://www.imdb.com/title/tt1182942/
Source: PAL DVDR-FEATURE 

[color=red]Video[/color]
Format: MPEG-4 Visual
Format profile: Advanced Simple@L5
Format settings, BVOP: Yes
Format settings, QPel: NoFile Size
Format settings, GMC:  No warpoints
Format settings, Matrix: Default (H.263)
Muxing mode: Packed bitstream
Codec ID: XVID
Bit rate: 2 173Kbps
Width: 720 pixels
Height: 400 pixels
DAR: 16:9
Frame rate 25.000 fps
Resolution: 8 bits
Colorimetry: 4:2:0
Scan Type: Progressive
Bits/(Pixel*Frame): 0.302
Stream size: 1 13 GiB (83%)

[color=red]Audio[/color]
Format: AC-3
Bit rate mode: Constant
Bit rate: 448 Kbps
Channel(s): 6 channels
Sampling rate: 48.0 KHz
Stream size: 239 MiB (17%) 

[img]http://leetleech.org/images/89524873606771859129.png[/img]
 A junior minister in the British Goverment discovers a terrorist
plot to detonate a nuclear device in London.                    
                                   
[color=red]Tagline:[/color]
N/A                 

[img]http://leetleech.org/images/84434050717770922575.png[/img]
Gary Mavers    ... Flight Lieutenant Sweeney
Johnathan Moore .. Norman Chase MP
Harriet Thorpe ... Elaine          
Claire Spence  ... Marcia Grain
Ben Rowe       ... Jake   
Alice Henley   ... Tanya   
Zoe Robinson   ... Private Gill 

[color=red]GREETZ[/color]
Noir | xXTHORNXx | bigimac | LUSi |

kempas | KaN1vE | mike160 | skillz |

Lungbuster | Sheikh | DiLLoN1369  |

0B5C3N3 | FLAWL3SS | AND ALL P2P![/b]

[img]http://leetleech.org/images/95521316153253938506.png[/img]
[center][img]http://leetleech.org/images/12755021538703799215.png[/img][/center]
[center][img]http://leetleech.org/images/12755021538703799215.png[/img][/center]